<?xml version="1.0" encoding="UTF-8" standalone="no"?>
<svg
   xmlns:dc="http://purl.org/dc/elements/1.1/"
   xmlns:cc="http://creativecommons.org/ns#"
   xmlns:rdf="http://www.w3.org/1999/02/22-rdf-syntax-ns#"
   xmlns:svg="http://www.w3.org/2000/svg"
   xmlns="http://www.w3.org/2000/svg"
   xmlns:sodipodi="http://sodipodi.sourceforge.net/DTD/sodipodi-0.dtd"
   xmlns:inkscape="http://www.inkscape.org/namespaces/inkscape"
   version="1.1"
   id="Layer_1"
   x="0px"
   y="0px"
   viewBox="0 0 1510 1665.717"
   enable-background="new 0 0 1510 1665.717"
   sodipodi:docname="cranium-3244109.svg"
   inkscape:version="0.92.3 (2405546, 2018-03-11)">
  <metadata
     id="metadata6590">
    <rdf:RDF>
      <cc:Work
         rdf:about="">
        <dc:format>image/svg+xml</dc:format>
        <dc:type
           rdf:resource="http://purl.org/dc/dcmitype/StillImage" />
      </cc:Work>
    </rdf:RDF>
  </metadata>
  <defs
     id="defs6588" />
  <sodipodi:namedview
     pagecolor="#ffffff"
     bordercolor="#666666"
     borderopacity="1"
     objecttolerance="10"
     gridtolerance="10"
     guidetolerance="10"
     inkscape:pageopacity="0"
     inkscape:pageshadow="2"
     inkscape:window-width="1280"
     inkscape:window-height="971"
     id="namedview6586"
     showgrid="false"
     inkscape:zoom="0.40073361"
     inkscape:cx="861.75974"
     inkscape:cy="635.84727"
     inkscape:window-x="-8"
     inkscape:window-y="-8"
     inkscape:window-maximized="1"
     inkscape:current-layer="Layer_1" />
  <g
     id="Man_Head_Silhouette" />
  <g
     id="g6583"
     transform="translate(7.601447,6.019396)"
     style="stroke:none;stroke-opacity:1">
    <path
       id="path19449_1_"
       d="M 537.50716,1675.2812 H 1319.173 c -32.843,-154.35 -72.15,-408.273 -55.23,-470.509 27.867,-105.553 117.921,-185.216 151.761,-269.85802 172.155,-430.179 -38.201,-804.68799 -513.98184,-854.382987 -420.115,-43.881995 -653.795,194.673997 -686.638,441.130987 -3.481,26.388 0,52.776 12.442,80.161 -57.715,90.119 -190.570013,223.055 -202.010013,286.786 -6.968,38.337 38.311,51.78 60.206,65.224 20.899003,6.971 43.785003,1.99 57.715013,18.91999 9.951,12.448 -3.481,33.35903 -6.47,48.79403 -0.498,25.392 -30.34601,37.84 -27.36301,61.24 2.989,19.916 19.903,27.883 35.32801,40.33 16.421,12.944 -41.79801,37.839 -22.89201,60.743 19.40401,22.404 47.77001,48.295 37.81301,80.16 -14.429,49.291 -42.29601,100.573 -19.405,138.911 22.892,37.84 54.732,60.244 103.991,70.2 60.671,0 121.653,0.931 182.7,1.328 33.999,0.221 64.926,19.568 80.147,49.97 24.315,48.561 34.145,98.874 30.221,150.852 z"
       inkscape:connector-curvature="0"
       style="stroke:none;stroke-opacity:1" />
    <g
       aria-label="sang!"
       transform="translate(54.899313,32.440504)"
       style="font-style:normal;font-weight:normal;font-size:353.33334351px;line-height:1.25;font-family:sans-serif;letter-spacing:0px;word-spacing:0px;fill:#ececec;fill-opacity:0.99497483;stroke:none;stroke-opacity:1"
       id="flowRoot6604">
      <path
         id="path11160"
         style="font-style:normal;font-variant:normal;font-weight:normal;font-stretch:normal;font-family:Tahoma;-inkscape-font-specification:Tahoma;fill:#ececec;fill-opacity:0.99497485;stroke:none;stroke-opacity:1"
         d="m 1196.1218,363.69005 -4.8307,186.1556 h -28.6394 l -5.1757,-186.1556 z m -1.7253,256.89128 h -35.1953 v -36.403 h 35.1953 z M 1062.2416,568.30594 V 462.54747 q -12.0769,-5.86588 -22.4284,-8.28125 -10.1791,-2.58789 -20.3581,-2.58789 -24.67122,0 -38.81836,18.11524 -14.14714,18.11523 -14.14714,51.93034 0,32.08984 10.69662,48.82487 10.86914,16.73502 35.02278,16.73502 12.5944,0 25.8789,-5.00325 13.457,-5.00326 24.1537,-13.97461 z m -109.0365,83.15755 q 3.27799,1.38021 9.66146,3.62305 6.38346,2.41536 14.49219,4.48568 8.97135,2.24284 16.5625,3.62304 7.59115,1.38021 16.56245,1.38021 15.0098,0 25.3614,-3.9681 10.5241,-3.9681 16.39,-11.04166 5.5208,-7.07357 7.7636,-16.38998 2.2429,-9.3164 2.2429,-21.2207 v -16.90755 q -13.112,11.38671 -25.7064,16.90755 -12.5944,5.34831 -31.5723,5.34831 -32.95246,0 -52.4479,-24.4987 -19.49545,-24.4987 -19.49545,-70.39063 0,-23.98112 6.72852,-42.44141 6.72851,-18.63281 18.11523,-31.57226 10.86914,-12.42188 25.70638,-19.1504 14.83724,-6.72851 30.70962,-6.72851 15.0098,0 25.8789,3.62305 11.0417,3.45052 22.0834,10.00651 l 1.8977,-8.28125 h 30.5372 v 170.80078 q 0,48.9974 -21.3933,71.94336 -21.3932,22.94597 -65.3873,22.94597 -14.14718,0 -28.98442,-2.24284 -14.66471,-2.24284 -27.43164,-6.03841 V 651.46349 Z M 900.41211,620.58133 H 867.97722 V 510.85476 q 0,-13.2845 -1.38021,-24.67122 -1.20768,-11.55924 -4.83073,-18.46029 -3.9681,-7.24609 -11.04167,-10.69661 -7.07356,-3.62305 -19.32291,-3.62305 -12.07683,0 -25.01628,6.55599 -12.76693,6.38346 -25.01628,16.73503 V 620.58133 H 748.93425 V 427.86974 h 32.43489 v 21.39323 q 14.49219,-12.93946 28.63933,-19.8405 14.14713,-6.90104 29.847,-6.90104 28.4668,0 44.51172,18.80534 16.04492,18.63281 16.04492,54.17318 z M 670.95248,573.13667 v -53.48308 q -11.55924,1.03516 -29.32943,2.93295 -17.59765,1.72526 -28.46679,5.00325 -12.93946,3.9681 -21.39323,12.24935 -8.45378,8.10872 -8.45378,22.77344 0,16.5625 9.31641,25.01628 9.3164,8.45377 27.25911,8.45377 15.35482,0 27.7767,-6.55599 12.42187,-6.72851 23.29101,-16.38997 z m 0,26.91406 q -3.9681,2.93294 -10.69661,8.28125 -6.55599,5.17578 -12.76693,8.28125 -8.6263,4.48568 -16.73503,6.90104 -7.93619,2.41537 -22.42838,2.41537 -11.9043,0 -22.60091,-4.48568 -10.69662,-4.48568 -18.80534,-12.5944 -7.76368,-7.9362 -12.42188,-19.49544 -4.6582,-11.73178 -4.6582,-24.67123 0,-20.01302 8.45377,-33.98763 8.45378,-14.14714 26.74154,-22.42839 16.21745,-7.41862 38.30078,-10.17903 22.08334,-2.93295 47.61719,-4.31315 v -6.21094 q 0,-11.38672 -3.45052,-18.28776 -3.45052,-7.07357 -9.66146,-10.86914 -6.21093,-3.9681 -15.18229,-5.17578 -8.97135,-1.38021 -18.46029,-1.38021 -11.21419,0 -26.39648,3.45052 -15.18229,3.27799 -30.36459,9.66146 h -1.89778 v -32.95248 q 8.97135,-2.58789 25.70638,-5.69336 16.73503,-3.10547 33.125,-3.10547 19.8405,0 33.47005,3.10547 13.62956,3.10547 24.4987,11.2142 10.52409,7.93619 15.69987,20.53059 5.17578,12.59441 5.17578,30.70964 v 131.8099 h -32.26237 z m -213.58724,25.1888 q -19.32292,0 -36.23047,-5.17578 -16.73503,-5.17578 -27.7767,-11.04166 v -36.403 h 1.72526 q 4.14063,3.27799 9.66146,7.24609 5.69336,3.9681 15.00977,8.28125 8.28125,3.79558 18.11523,6.72852 10.00651,2.93294 20.70313,2.93294 7.76367,0 16.5625,-1.72526 8.79883,-1.89778 13.11198,-4.6582 6.03841,-3.9681 8.6263,-8.45378 2.76042,-4.48567 2.76042,-13.45703 0,-11.55924 -6.38347,-17.42513 -6.21093,-5.86589 -22.25586,-9.83398 -6.21093,-1.55274 -16.21744,-3.62305 -10.00651,-2.07031 -18.46029,-4.48568 -22.08334,-6.38346 -32.08985,-19.66797 -10.00651,-13.45703 -10.00651,-32.43489 0,-26.05144 19.66797,-42.44141 19.66797,-16.38998 52.27539,-16.38998 16.04493,0 32.26238,3.9681 16.21744,3.9681 27.25911,10.00651 v 34.67774 h -1.72526 q -12.42187,-9.83399 -27.77669,-15.52735 -15.1823,-5.69336 -30.70964,-5.69336 -16.04492,0 -27.08659,6.72852 -11.04167,6.72852 -11.04167,20.35807 0,12.07683 6.55599,18.11524 6.55599,5.86588 21.04818,9.66146 7.2461,1.89778 16.04492,3.79557 8.97136,1.72526 18.80534,4.14063 21.39323,5.3483 32.08985,17.77018 10.86914,12.42187 10.86914,33.8151 0,12.42188 -5.00326,23.63607 -4.83073,11.04167 -14.31966,18.97787 -10.35156,8.6263 -23.46354,13.11198 -12.93945,4.48567 -32.60742,4.48567 z"
         inkscape:connector-curvature="0" />
      <path
         inkscape:connector-curvature="0"
         d="m 1196.1218,363.69005 -4.8307,186.1556 h -28.6394 l -5.1757,-186.1556 z m -1.7253,256.89128 h -35.1953 v -36.403 h 35.1953 z M 1062.2416,568.30594 V 462.54747 q -12.0769,-5.86588 -22.4284,-8.28125 -10.1791,-2.58789 -20.3581,-2.58789 -24.67122,0 -38.81836,18.11524 -14.14714,18.11523 -14.14714,51.93034 0,32.08984 10.69662,48.82487 10.86914,16.73502 35.02278,16.73502 12.5944,0 25.8789,-5.00325 13.457,-5.00326 24.1537,-13.97461 z m -109.0365,83.15755 q 3.27799,1.38021 9.66146,3.62305 6.38346,2.41536 14.49219,4.48568 8.97135,2.24284 16.5625,3.62304 7.59115,1.38021 16.56245,1.38021 15.0098,0 25.3614,-3.9681 10.5241,-3.9681 16.39,-11.04166 5.5208,-7.07357 7.7636,-16.38998 2.2429,-9.3164 2.2429,-21.2207 v -16.90755 q -13.112,11.38671 -25.7064,16.90755 -12.5944,5.34831 -31.5723,5.34831 -32.95246,0 -52.4479,-24.4987 -19.49545,-24.4987 -19.49545,-70.39063 0,-23.98112 6.72852,-42.44141 6.72851,-18.63281 18.11523,-31.57226 10.86914,-12.42188 25.70638,-19.1504 14.83724,-6.72851 30.70962,-6.72851 15.0098,0 25.8789,3.62305 11.0417,3.45052 22.0834,10.00651 l 1.8977,-8.28125 h 30.5372 v 170.80078 q 0,48.9974 -21.3933,71.94336 -21.3932,22.94597 -65.3873,22.94597 -14.14718,0 -28.98442,-2.24284 -14.66471,-2.24284 -27.43164,-6.03841 V 651.46349 Z M 900.41211,620.58133 H 867.97722 V 510.85476 q 0,-13.2845 -1.38021,-24.67122 -1.20768,-11.55924 -4.83073,-18.46029 -3.9681,-7.24609 -11.04167,-10.69661 -7.07356,-3.62305 -19.32291,-3.62305 -12.07683,0 -25.01628,6.55599 -12.76693,6.38346 -25.01628,16.73503 V 620.58133 H 748.93425 V 427.86974 h 32.43489 v 21.39323 q 14.49219,-12.93946 28.63933,-19.8405 14.14713,-6.90104 29.847,-6.90104 28.4668,0 44.51172,18.80534 16.04492,18.63281 16.04492,54.17318 z M 670.95248,573.13667 v -53.48308 q -11.55924,1.03516 -29.32943,2.93295 -17.59765,1.72526 -28.46679,5.00325 -12.93946,3.9681 -21.39323,12.24935 -8.45378,8.10872 -8.45378,22.77344 0,16.5625 9.31641,25.01628 9.3164,8.45377 27.25911,8.45377 15.35482,0 27.7767,-6.55599 12.42187,-6.72851 23.29101,-16.38997 z m 0,26.91406 q -3.9681,2.93294 -10.69661,8.28125 -6.55599,5.17578 -12.76693,8.28125 -8.6263,4.48568 -16.73503,6.90104 -7.93619,2.41537 -22.42838,2.41537 -11.9043,0 -22.60091,-4.48568 -10.69662,-4.48568 -18.80534,-12.5944 -7.76368,-7.9362 -12.42188,-19.49544 -4.6582,-11.73178 -4.6582,-24.67123 0,-20.01302 8.45377,-33.98763 8.45378,-14.14714 26.74154,-22.42839 16.21745,-7.41862 38.30078,-10.17903 22.08334,-2.93295 47.61719,-4.31315 v -6.21094 q 0,-11.38672 -3.45052,-18.28776 -3.45052,-7.07357 -9.66146,-10.86914 -6.21093,-3.9681 -15.18229,-5.17578 -8.97135,-1.38021 -18.46029,-1.38021 -11.21419,0 -26.39648,3.45052 -15.18229,3.27799 -30.36459,9.66146 h -1.89778 v -32.95248 q 8.97135,-2.58789 25.70638,-5.69336 16.73503,-3.10547 33.125,-3.10547 19.8405,0 33.47005,3.10547 13.62956,3.10547 24.4987,11.2142 10.52409,7.93619 15.69987,20.53059 5.17578,12.59441 5.17578,30.70964 v 131.8099 h -32.26237 z m -213.58724,25.1888 q -19.32292,0 -36.23047,-5.17578 -16.73503,-5.17578 -27.7767,-11.04166 v -36.403 h 1.72526 q 4.14063,3.27799 9.66146,7.24609 5.69336,3.9681 15.00977,8.28125 8.28125,3.79558 18.11523,6.72852 10.00651,2.93294 20.70313,2.93294 7.76367,0 16.5625,-1.72526 8.79883,-1.89778 13.11198,-4.6582 6.03841,-3.9681 8.6263,-8.45378 2.76042,-4.48567 2.76042,-13.45703 0,-11.55924 -6.38347,-17.42513 -6.21093,-5.86589 -22.25586,-9.83398 -6.21093,-1.55274 -16.21744,-3.62305 -10.00651,-2.07031 -18.46029,-4.48568 -22.08334,-6.38346 -32.08985,-19.66797 -10.00651,-13.45703 -10.00651,-32.43489 0,-26.05144 19.66797,-42.44141 19.66797,-16.38998 52.27539,-16.38998 16.04493,0 32.26238,3.9681 16.21744,3.9681 27.25911,10.00651 v 34.67774 h -1.72526 q -12.42187,-9.83399 -27.77669,-15.52735 -15.1823,-5.69336 -30.70964,-5.69336 -16.04492,0 -27.08659,6.72852 -11.04167,6.72852 -11.04167,20.35807 0,12.07683 6.55599,18.11524 6.55599,5.86588 21.04818,9.66146 7.2461,1.89778 16.04492,3.79557 8.97136,1.72526 18.80534,4.14063 21.39323,5.3483 32.08985,17.77018 10.86914,12.42187 10.86914,33.8151 0,12.42188 -5.00326,23.63607 -4.83073,11.04167 -14.31966,18.97787 -10.35156,8.6263 -23.46354,13.11198 -12.93945,4.48567 -32.60742,4.48567 z"
         style="font-style:normal;font-variant:normal;font-weight:normal;font-stretch:normal;font-family:Tahoma;-inkscape-font-specification:Tahoma;fill:#ececec;fill-opacity:0.99497485;stroke:none;stroke-opacity:1"
         id="path11181" />
    </g>
    <flowRoot
       xml:space="preserve"
       id="flowRoot11120"
       style="font-style:normal;font-weight:normal;font-size:40px;line-height:1.25;font-family:sans-serif;letter-spacing:0px;word-spacing:0px;fill:#000000;fill-opacity:1;stroke:none;stroke-opacity:1"><flowRegion
         id="flowRegion11122"
         style="stroke:none;stroke-opacity:1"><rect
           id="rect11124"
           width="214.60641"
           height="541.50684"
           x="888.37073"
           y="1024.3932"
           style="stroke:none;stroke-opacity:1" /></flowRegion><flowPara
         id="flowPara11126"></flowPara></flowRoot>  </g>
  <path
     style="stroke-width:2.49542332"
     d=""
     id="path6598"
     inkscape:connector-curvature="0" />
  <path
     style="stroke-width:2.49542332"
     d=""
     id="path6600"
     inkscape:connector-curvature="0" />
  <path
     style="stroke-width:2.49542332"
     d=""
     id="path6602"
     inkscape:connector-curvature="0" />
  <g
     inkscape:groupmode="layer"
     id="layer2"
     inkscape:label="Layer 1" />
  <path
     style="fill:none;fill-opacity:0.99497483;stroke-width:2.49542332"
     d="m 490.46954,660.42106 c -7.25832,-1.75735 -17.64552,-5.20122 -23.08266,-7.65303 l -9.88573,-4.45784 v -17.47573 c 0,-16.54425 0.23485,-17.26321 4.40588,-13.48848 2.42323,2.193 12.24896,7.68139 21.83495,12.19644 15.23336,7.17499 19.94407,8.20149 37.39247,8.14816 30.87207,-0.0943 41.17448,-7.45339 41.17448,-29.41102 0,-16.06004 -7.65349,-21.64244 -41.19459,-30.04704 -14.69558,-3.68236 -30.94883,-8.85298 -36.11833,-11.49026 -38.81636,-19.80263 -35.24545,-74.78896 6.15858,-94.83231 20.52098,-9.93404 59.43654,-9.15733 86.64498,1.72933 l 9.4636,3.78658 v 15.9493 c 0,8.77212 -0.66886,15.9493 -1.48635,15.9493 -0.81749,0 -4.85079,-2.39569 -8.96288,-5.32376 -10.24501,-7.29509 -34.97847,-14.65107 -49.0394,-14.58482 -14.03127,0.0661 -31.33066,7.43097 -35.42511,15.0815 -4.40402,8.22899 -3.46057,24.48187 1.75571,30.24579 6.01033,6.64134 15.12633,10.14947 43.24956,16.64382 37.64655,8.69352 52.19185,19.85763 55.87419,42.88573 7.81289,48.85916 -41.92597,80.87711 -102.75935,66.14834 z"
     id="path11169"
     inkscape:connector-curvature="0" />
  <path
     style="fill:none;fill-opacity:0.99497483;stroke-width:2.49542332"
     d="m 647.1982,658.85785 c -14.72283,-6.67821 -19.31189,-11.09579 -26.73672,-25.73763 -4.80116,-9.46794 -6.18902,-16.04422 -6.18902,-29.32623 0,-38.8457 23.03478,-58.46741 75.78668,-64.55736 49.48119,-5.71235 44.43522,-4.06893 44.42468,-14.46867 -0.0127,-12.5063 -8.10674,-24.90035 -19.32158,-29.58621 -12.68417,-5.29978 -51.59534,-3.45916 -71.12819,3.36459 l -14.34869,5.01267 v -15.65603 -15.65603 l 14.34869,-3.29611 c 7.89178,-1.81286 27.82397,-3.29615 44.29376,-3.2962 28.28155,-8e-5 30.77685,0.4158 44.91762,7.48618 15.91153,7.95577 24.30947,17.74196 28.65737,33.39468 1.41069,5.07859 2.51368,40.4104 2.52151,80.77094 l 0.0139,71.74342 h -14.82906 -14.82906 l -0.76734,-10.10487 -0.76734,-10.10487 -8.73398,6.63294 c -24.79458,18.83004 -54.11707,23.90647 -77.31325,13.38479 z m 56.56145,-25.57592 c 4.37007,-1.61119 13.07286,-6.55585 19.33953,-10.98813 l 11.39397,-8.05871 v -27.8233 -27.82331 l -19.59436,1.70924 c -24.71655,2.15606 -45.72269,6.99355 -54.04372,12.44569 -9.4585,6.19745 -16.18243,18.75327 -16.15105,30.15943 0.0581,21.136 14.10744,33.81102 37.13041,33.49837 7.68881,-0.10441 17.55516,-1.50809 21.92522,-3.11928 z"
     id="path11171"
     inkscape:connector-curvature="0" />
  <path
     style="fill:none;fill-opacity:0.99497483;stroke-width:2.49542332"
     d="m 811.85127,564.22378 v -94.82609 h 14.97254 14.97254 v 9.98169 c 0,5.48993 0.55887,9.9817 1.24193,9.9817 0.68307,0 6.70737,-3.92652 13.38734,-8.72561 42.35309,-30.42766 92.7747,-16.29716 102.42584,28.70454 1.59521,7.43821 2.72521,41.11112 2.72521,81.20854 v 68.50131 h -14.97254 -14.97254 v -62.04498 c 0,-70.58106 -1.89809,-85.7301 -12.00902,-95.84654 -14.1451,-14.15283 -45.91877,-10.30243 -68.46838,8.29714 l -9.35784,7.71861 v 70.93789 70.93788 h -14.97254 -14.97254 z"
     id="path11173"
     inkscape:connector-curvature="0" />
  <path
     style="fill:none;fill-opacity:0.99497483;stroke-width:2.49542332"
     d="m 1037.6871,729.8148 c -2.745,-0.69954 -9.2019,-2.35288 -14.3487,-3.67408 l -9.3578,-2.40222 v -15.99673 -15.99674 l 8.1101,3.38723 c 4.4606,1.86297 17.0272,5.22852 27.9258,7.47901 33.9854,7.01774 59.5141,-0.0483 69.4097,-19.21176 4.7894,-9.27489 9.4908,-49.30388 5.7908,-49.30388 -0.974,0 -5.3454,2.67478 -9.7144,5.94396 -12.8552,9.61907 -22.0337,13.39416 -37.1616,15.28425 -51.683,6.45737 -85.36946,-35.42938 -81.12381,-100.87174 2.55875,-39.44052 18.40071,-67.41472 46.37961,-81.89851 20.5996,-10.66371 43.5291,-11.30564 66.4576,-1.86051 17.7341,7.30538 16.2202,7.07692 16.2202,2.44774 0,-2.91616 3.3468,-3.74313 15.1486,-3.74313 h 15.1486 l -0.8674,100.44079 c -0.8507,98.49888 -0.9805,100.72452 -6.7161,115.11594 -7.5332,18.90209 -19.4394,31.92022 -35.8355,39.18237 -10.8379,4.8003 -17.9996,5.89257 -41.7775,6.37167 -15.7836,0.31804 -30.9433,0.005 -33.6882,-0.69366 z m 54.9989,-104.56282 c 8.1801,-2.11904 19.1058,-6.64118 24.2793,-10.04918 l 9.4063,-6.19638 -0.6724,-54.04502 -0.6723,-54.04503 -13.6601,-4.71987 c -19.467,-6.72627 -41.8931,-6.3956 -54.7078,0.80667 -20.8969,11.74474 -28.852,33.00838 -27.2317,72.78955 1.4411,35.38009 8.1582,48.37119 28.8234,55.74533 12.2427,4.36867 16.6065,4.33241 34.4353,-0.28607 z"
     id="path11175"
     inkscape:connector-curvature="0" />
  <path
     style="fill:none;fill-opacity:0.99497483;stroke-width:2.49542332"
     d="m 1225.123,542.38882 c -0.8669,-25.73405 -2.2632,-67.28285 -3.103,-92.33066 l -1.5269,-45.54148 18.3956,-0.004 18.3956,-0.004 -1.5725,55.52707 c -0.8649,30.5399 -1.7071,72.09045 -1.8716,92.33458 l -0.299,36.80749 h -13.421 -13.421 z"
     id="path11177"
     inkscape:connector-curvature="0" />
  <path
     style="fill:none;fill-opacity:0.99497483;stroke-width:2.49542332"
     d="m 1223.5961,641.5819 v -17.46796 h 16.2203 16.2202 v 17.46796 17.46796 h -16.2202 -16.2203 z"
     id="path11179"
     inkscape:connector-curvature="0" />
</svg>
